# xmcd CD database file
#
# Track frame offsets:
#	150
#	33275
#	73397
#	91397
#	113897
#	135275
#	152072
#	176630
#	202547
#	223775
#	239597
#
# Disc length: 3454 seconds
#
# Revision: 0
# Processed by: cddbd v1.5PL3 Copyright (c) Steve Scherf et al.
# Submitted via: CDex 1.51
#
DISCID=960d7c0b
DTITLE=Lena Jansson - Gershwin Songs
DYEAR=1995
DGENRE=Jazz
TTITLE0=Isn't it a pity?
TTITLE1=Someone to watch over me
TTITLE2=Soon
TTITLE3=Fascinatin' Rhythm
TTITLE4=That cetain Feeling
TTITLE5='S wonderful
TTITLE6=Pay some Attention to me
TTITLE7=Embaceable you
TTITLE8=But not for me
TTITLE9=Bidin' my Time
TTITLE10=By Strauss
EXTD=YEAR: 1995
EXTT0=
EXTT1=
EXTT2=
EXTT3=
EXTT4=
EXTT5=
EXTT6=
EXTT7=
EXTT8=
EXTT9=
EXTT10=
PLAYORDER=
